<svg xmlns="http://www.w3.org/2000/svg" width="141" height="38" viewBox="0 0 141 38" fill="none">
<path d="M50.4566 35.855C48.4508 34.7317 46.883 33.1758 45.7532 31.1949C44.6312 29.214 44.0625 26.9674 44.0625 24.4628C44.0625 21.9582 44.6389 19.7116 45.7917 17.7307C46.9445 15.7498 48.543 14.2015 50.5796 13.0858C52.6161 11.9777 54.8987 11.416 57.4348 11.416C59.9709 11.416 62.1996 11.9777 64.2054 13.1009C66.2113 14.2242 67.7791 15.7801 68.9088 17.761C70.0308 19.742 70.5995 21.9885 70.5995 24.4931C70.5995 26.9978 70.0232 29.2443 68.8704 31.2253C67.7176 33.2062 66.1191 34.7545 64.0825 35.8702C62.0459 36.9783 59.7634 37.5399 57.2273 37.5399C54.6912 37.5399 52.4624 36.9783 50.4566 35.855ZM61.0084 30.7547C62.0459 30.1627 62.8452 29.3278 63.3985 28.2425C63.9518 27.1571 64.2285 25.9124 64.2285 24.5083C64.2285 22.368 63.5983 20.6376 62.3456 19.3169C61.0929 17.9963 59.4099 17.336 57.3041 17.336C55.1984 17.336 54.6912 17.632 53.6536 18.224C52.6161 18.816 51.8169 19.6509 51.2635 20.7362C50.7102 21.8216 50.4335 23.0663 50.4335 24.4704C50.4335 25.8745 50.7102 27.1192 51.2635 28.2045C51.8169 29.2899 52.6238 30.1323 53.6767 30.7395C54.7296 31.3467 55.9592 31.6427 57.3502 31.6427C58.7413 31.6427 59.9632 31.3467 61.0007 30.7547H61.0084Z" fill="#1FA0FF"/>
<path d="M74.9551 11.9321H81.1955V17.336H81.6258C81.8564 16.6301 82.1408 16.0002 82.4789 15.4385C82.8171 14.8769 83.209 14.3684 83.6317 13.9206C84.4002 13.0781 85.3224 12.4482 86.3907 12.0459C87.4589 11.6361 88.5656 11.4312 89.703 11.4312C92.3544 11.4312 94.4678 12.2357 96.051 13.8371C97.6341 15.4385 98.4257 17.6775 98.4257 20.5464V37.0465H92.0624V22.4894C92.0624 20.8273 91.7088 19.5598 90.9941 18.6718C90.2794 17.7838 89.0421 17.3436 87.2745 17.3436C85.5069 17.3436 85.3762 17.5181 84.5001 17.8748C83.6163 18.224 82.8709 18.8843 82.256 19.8406C81.6412 20.7969 81.3338 22.1175 81.3338 23.81V37.0617H74.9704V11.9321H74.9551Z" fill="#1FA0FF"/>
<path d="M104.469 7.2719C103.685 6.49775 103.293 5.56421 103.293 4.46369C103.293 3.36318 103.685 2.47518 104.469 1.70103C105.253 0.926872 106.198 0.539795 107.312 0.539795C108.427 0.539795 109.326 0.926872 110.11 1.70103C110.894 2.47518 111.286 3.39354 111.286 4.46369C111.286 5.53385 110.894 6.49775 110.11 7.2719C109.326 8.04605 108.396 8.43313 107.312 8.43313C106.229 8.43313 105.253 8.04605 104.469 7.2719ZM104.184 33.5172V11.932H110.548V37.0389H104.184V33.5172Z" fill="#1FA0FF"/>
<path d="M116.617 11.9321H122.858V17.336H123.288C123.519 16.6301 123.803 16.0002 124.141 15.4385C124.479 14.8769 124.871 14.3684 125.294 13.9206C126.062 13.0781 126.985 12.4482 128.053 12.0459C129.121 11.6361 130.228 11.4312 131.365 11.4312C134.017 11.4312 136.13 12.2357 137.713 13.8371C139.296 15.4385 140.088 17.6775 140.088 20.5464V37.0465H133.724V22.4894C133.724 20.8273 133.371 19.5598 132.656 18.6718C131.942 17.7838 130.704 17.3436 128.937 17.3436C127.169 17.3436 127.038 17.5181 126.162 17.8748C125.278 18.224 124.533 18.8843 123.918 19.8406C123.303 20.7969 122.996 22.1175 122.996 23.81V37.0617H116.633V11.9321H116.617Z" fill="#1FA0FF"/>
<path d="M37.5476 11.3096C37.5476 11.4311 37.5476 11.5525 37.5476 11.674C37.4784 14.3076 36.3179 16.8046 34.4351 18.6717L32.729 20.3642L30.5617 22.5045L29.8009 21.7531L16.0828 8.20544L15.5371 7.66657V37.3349H0.0898438V0.539795H26.404C32.4677 0.539795 37.5092 5.32133 37.5476 11.3096Z" fill="#1FA0FF"/>
<path d="M45.5786 37.3348H15.5371L30.554 22.4968L45.5786 37.3348Z" fill="#1FA0FF"/>
</svg>